inDegrees=yes
name=ik_S55_A08_T01
DataType=double
version=3
OpenSimVersion=4.3-2021-08-27-4bc7ad9
endheader
time	pelvis_tilt	pelvis_list	pelvis_rotation	pelvis_tx	pelvis_ty	pelvis_tz	hip_flexion_r	hip_adduction_r	hip_rotation_r	knee_angle_r	knee_angle_r_beta	ankle_angle_r	subtalar_angle_r	mtp_angle_r	hip_flexion_l	hip_adduction_l	hip_rotation_l	knee_angle_l	knee_angle_l_beta	ankle_angle_l	subtalar_angle_l	mtp_angle_l	lumbar_extension	lumbar_bending	lumbar_rotation	arm_flex_r	arm_add_r	arm_rot_r	elbow_flex_r	pro_sup_r	wrist_flex_r	wrist_dev_r	arm_flex_l	arm_add_l	arm_rot_l	elbow_flex_l	pro_sup_l	wrist_flex_l	wrist_dev_l
13.4999999999998	-5.622507132958946	-1.2670527236075	18.39942452409337	0	0.9399999999999999	0	44.32678426702343	-10.07658998991504	-10.2091136644839	55.24412607881396	0.964191892462168	0	0	0	44.32678426702343	-10.07658998991504	-10.2091136644839	55.24412607881396	0.964191892462168	0	0	0	-3.513973308231291	-0.9503304152094112	2.244473349000502	22.22716437326788	-13.51505673810848	-12.02738315427933	56.00427043215659	129.0348035882471	0	0	75.3410729989525	-21.74758521033839	7.404992542004115	105.0595990173765	132.4917797949873	0	0
13.5199999999998	-5.621598569031753	-1.266567876936836	18.38759640204474	0	0.9399999999999999	0	44.3269884633897	-10.0765093859424	-10.20897218688458	55.24407621639046	0.9641910221987049	0	0	0	44.3269884633897	-10.0765093859424	-10.20897218688458	55.24407621639046	0.9641910221987049	0	0	0	-3.513128641020085	-0.9506734989702722	2.255317054082936	22.24383424606725	-13.51957813345439	-12.00414823349918	55.98604549873736	129.03673651538	0	0	75.59202822678373	-21.73663702928552	7.55189182832646	105.006114225017	132.4217864091689	0	0
13.5399999999998	-5.622709364563629	-1.259939319082891	18.35448902627974	0	0.9399999999999999	0	44.3271623434928	-10.07644048920006	-10.20885139627384	55.24403393514204	0.9641902842517082	0	0	0	44.3271623434928	-10.07644048920006	-10.20885139627384	55.24403393514204	0.9641902842517082	0	0	0	-3.512242581868255	-0.9445573529252523	2.26662023176294	22.29031094924864	-13.54316006120143	-11.99955718968756	55.94120082088665	129.0544956472776	0	0	75.76420373514928	-21.6927990637704	7.693905941353044	105.0773693721747	132.3503355749601	0	0
13.5599999999998	-5.616824186352477	-1.24621089037885	18.31908027549527	0	0.9399999999999999	0	44.32723701629708	-10.07641114443378	-10.20879980166431	55.24401564228565	0.9641899649811344	0	0	0	44.32723701629708	-10.07641114443378	-10.20879980166431	55.24401564228565	0.9641899649811344	0	0	0	-3.502522713906	-0.9332086113274748	2.265792743391703	22.2875336617791	-13.55484477710164	-11.96818115334547	55.92618412277002	129.0706655028772	0	0	75.85033635854433	-21.64120032168012	7.774654722973459	105.1344293721894	132.3482149185582	0	0
13.5799999999998	-5.614144584433139	-1.243096644037321	18.30510619065041	0	0.9399999999999999	0	44.32575680031506	-10.07678923858365	-10.20962581857807	55.24439582940482	0.9641966004981377	0	0	0	44.32575680031506	-10.07678923858365	-10.20962581857807	55.24439582940482	0.9641966004981377	0	0	0	-3.495307228802604	-0.9337613069026137	2.2720617067298	22.31286755547282	-13.52889435852337	-12.00359895650148	55.88036413930512	129.1336291806402	0	1.516385439725374e-34	75.88959628970811	-21.60248988915286	7.795700358860995	105.1971537672161	132.4192448309559	0	1.516385439725374e-34
13.5999999999998	-5.623581940243871	-1.254088042153154	18.29443383420804	0	0.9399999999999999	0	44.32668653906243	-10.07639986766219	-10.20896166923742	55.24417133407145	0.964192682315415	0	0	0	44.32668653906243	-10.07639986766219	-10.20896166923742	55.24417133407145	0.964192682315415	0	0	0	-3.509301330240861	-0.9414718558818267	2.294659254614886	22.35149582318446	-13.52148202353761	-12.05851598658622	55.85962651029233	129.1204310522796	0	0	75.91977722211521	-21.62233840562021	7.781245737078101	105.3929294908176	132.2799149363738	0	0
13.6199999999998	-5.61929244752439	-1.257367890244702	18.29544165416034	0	0.9399999999999999	0	44.32641376465425	-10.07640991802384	-10.20905756273464	55.2442467270849	0.9641939981717327	0	0	0	44.32641376465425	-10.07640991802384	-10.20905756273464	55.2442467270849	0.9641939981717327	0	0	0	-3.505561205924179	-0.9463720739726939	2.294463219804031	22.34253356205829	-13.50048572420936	-12.07717955961479	55.84500408084109	129.1494881565532	0	0	75.85901773399348	-21.61891250448279	7.752467277725262	105.4280823127807	132.3008252638989	0	0
13.6399999999998	-5.618393410988918	-1.258719804936261	18.30686224446283	0	0.9399999999999999	0	44.32717562749242	-10.07598579478791	-10.20841193141658	55.24407359918064	0.9641909765197763	4.772948257827321e-36	0	0	44.32717562749242	-10.07598579478791	-10.20841193141658	55.24407359918064	0.9641909765197763	4.772948257827321e-36	0	0	-3.50672510049597	-0.9471217228630443	2.297603855184394	22.34500443916761	-13.46790477292447	-12.09331005615509	55.84820263981327	129.1255388380384	0	0	75.77196108194508	-21.5964194854679	7.708218738568083	105.4857704567873	132.2364770128915	0	0
13.6599999999998	-5.620158447667795	-1.253196816606598	18.30903932106194	0	0.9399999999999999	0	44.32748103202946	-10.07552572019834	-10.20786722256209	55.24403532387871	0.9641903084897354	0	0	0	44.32748103202946	-10.07552572019834	-10.20786722256209	55.24403532387871	0.9641903084897354	0	0	0	-3.507135343964216	-0.9409528306505838	2.296160045793279	22.34394807533396	-13.48782283929881	-12.06457730192852	55.8488876108436	129.1118254314752	0	0	75.70437396657314	-21.59354721883026	7.718717182188548	105.533861692851	132.1776767717895	0	0
